<?xml version="1.0" encoding="utf-8"?>
<!-- Generator: Adobe Illustrator 19.0.0, SVG Export Plug-In . SVG Version: 6.00 Build 0)  -->
<svg version="1.1" id="Layer_1" xmlns="http://www.w3.org/2000/svg" xmlns:xlink="http://www.w3.org/1999/xlink" x="0px" y="0px"
	 viewBox="697 -44 150.9 115" style="enable-background:new 697 -44 150.9 115;" xml:space="preserve">
<style type="text/css">
	.st0{fill:#002934;}
</style>
<g>
	<path class="st0" d="M710.8,53.7c-0.4-0.4-0.8-0.6-1.3-0.8c-0.5-0.2-0.9-0.4-1.4-0.6s-1-0.3-1.4-0.5c-0.5-0.1-0.9-0.3-1.3-0.5
		s-0.7-0.4-0.9-0.7c-0.2-0.3-0.4-0.6-0.4-1c0-0.3,0-0.6,0.2-0.9c0.1-0.3,0.3-0.5,0.5-0.7s0.5-0.3,0.8-0.4s0.7-0.1,1.1-0.1
		c1,0,1.8,0.1,2.4,0.2l0.3,2.1c0.1,0.4,0.4,0.6,0.7,0.6h1.4v-0.3l0,0v-4.4c-1.6-0.6-3.2-1-4.9-1c-0.9,0-1.7,0.1-2.4,0.4
		c-0.7,0.3-1.3,0.6-1.7,1.1c-0.5,0.4-0.8,1-1.1,1.6c-0.3,0.6-0.4,1.2-0.4,1.8c0,0.8,0.1,1.4,0.4,2c0.2,0.5,0.5,1,0.9,1.3
		c0.4,0.4,0.8,0.7,1.3,0.9c0.5,0.2,0.9,0.4,1.4,0.6s1,0.3,1.4,0.4c0.5,0.1,0.9,0.3,1.2,0.5c0.4,0.2,0.7,0.4,0.9,0.7
		c0.2,0.3,0.3,0.7,0.3,1.1c0,0.8-0.2,1.4-0.7,1.8s-1.2,0.6-2.1,0.6c-1.2,0-2.2-0.1-2.8-0.2l-0.3-2.1c-0.1-0.4-0.4-0.6-0.7-0.6h-1.4
		v0.3v3V60v1.2c1.7,0.6,3.4,0.9,4.9,0.9h0.4c0.9,0,1.8-0.1,2.5-0.4s1.4-0.7,1.9-1.2s0.9-1.1,1.2-1.8c0.3-0.7,0.4-1.4,0.4-2.1
		s-0.1-1.3-0.3-1.8C711.5,54.5,711.2,54.1,710.8,53.7z"/>
	<path class="st0" d="M716.1,46.1v0.1v1.4v1.9h1.4c0.4,0,0.7-0.3,0.7-0.6l0.2-1.3h3.1v12.1l-1.1,0.2c-0.4,0.1-0.6,0.4-0.6,0.7V62
		h1.8h1.5h0.1h1.5h1.8v-1.4c0-0.4-0.3-0.7-0.6-0.7l-1.1-0.2V47.6h3.1l0.2,1.2c0.1,0.4,0.4,0.6,0.7,0.6h1.4v-1.9v-1.4V46v-1H716
		L716.1,46.1L716.1,46.1z"/>
	<path class="st0" d="M749.7,59.9l-1.1-0.2L742.8,45h-3.3l-5.8,14.7l-1.1,0.2c-0.4,0.1-0.6,0.4-0.6,0.7V62h3.3h0.1h3.3v-1.4
		c0-0.4-0.3-0.7-0.6-0.7l-1.2-0.2l0.8-2.2h6.8l0.8,2.2l-1.2,0.2c-0.4,0.1-0.6,0.4-0.6,0.7V62h3.3h0.1h3.3v-1.4
		C750.4,60.3,750.1,60,749.7,59.9z M738.6,55.3c0,0,2.3-6.6,2.6-7.3c0.2,0.8,2.6,7.3,2.6,7.3H738.6z"/>
	<path class="st0" d="M765.7,58.1c-0.1,0-0.2,0-0.3,0s-0.2,0.1-0.3,0.2c-0.3,0.2-0.5,0.4-0.8,0.6s-0.5,0.3-0.8,0.4s-0.6,0.2-1,0.2
		s-0.8,0.1-1.2,0.1c-0.7,0-1.4-0.1-2-0.4s-1.2-0.7-1.7-1.2s-0.8-1.1-1.1-1.9c-0.3-0.8-0.4-1.6-0.4-2.5s0.1-1.8,0.4-2.5
		c0.3-0.8,0.7-1.4,1.1-1.9c0.5-0.5,1-0.9,1.7-1.2s1.4-0.4,2.2-0.4s1.8,0.1,2.9,0.5l0.3,1.8c0.1,0.4,0.4,0.6,0.7,0.6h1.4l0,0l0,0
		v-4.3c-2.1-0.8-3.9-1.2-5.4-1.2c-1.3,0-2.5,0.2-3.6,0.6s-2,1-2.8,1.8s-1.4,1.7-1.8,2.7c-0.4,1.1-0.6,2.3-0.6,3.5
		c0,1.3,0.2,2.4,0.6,3.5s0.9,2,1.7,2.8c0.7,0.8,1.6,1.4,2.6,1.8s2.1,0.7,3.4,0.7c1.4,0,2.6-0.2,3.7-0.7c1-0.4,1.9-1.1,2.5-2
		l-1.2-1.4C766.1,58.1,765.9,58.1,765.7,58.1z"/>
	<path class="st0" d="M787.6,59.9l-0.8-0.1l-4.2-5.7c-0.2-0.3-0.4-0.5-0.6-0.7s-0.4-0.3-0.7-0.4c0.2-0.1,0.4-0.2,0.5-0.4
		c0.2-0.1,0.3-0.3,0.5-0.5l3.7-4.8l1.1-0.2c0.4-0.1,0.6-0.4,0.6-0.7V45h-3.3h-0.1H781v1.4c0,0.4,0.3,0.7,0.6,0.7l0.9,0.1l-3.4,4.3
		c-0.1,0.2-0.3,0.3-0.5,0.4c-0.2,0.1-0.4,0.1-0.7,0.1h-0.8v-4.8l1.2-0.2c0.4-0.1,0.6-0.4,0.6-0.7v-1.4h-3.3h-0.1h-3.3v1.4
		c0,0.4,0.3,0.7,0.6,0.7l1.2,0.2v12.3l-1.2,0.2c-0.4,0.1-0.6,0.4-0.6,0.7v1.4h3.3h0.1h3.3v-1.4c0-0.4-0.3-0.7-0.6-0.7l-1.2-0.2v-5.1
		h1c0.4,0,0.6,0,0.8,0.1c0.2,0.1,0.4,0.2,0.5,0.4l3.5,4.6l-0.9,0.1c-0.4,0.1-0.6,0.4-0.6,0.7v1.4h3.3h0.1h3.3v-1.4
		C788.2,60.3,788,60,787.6,59.9z"/>
	<path class="st0" d="M796.8,45.1h-0.1h-1.5h-1.8v1.4c0,0.4,0.3,0.7,0.6,0.7l1.2,0.2v12.3l-1.2,0.2c-0.4,0.1-0.6,0.4-0.6,0.7V62h1.8
		h1.5h0.1h3.3h5.8v-1.1v-0.1v-1.4v-1.9h-1.4c-0.4,0-0.7,0.3-0.7,0.6l-0.2,1.3h-5.2v-4.8h5.8v-2.5h-5.8v-4.7h5.2l0.2,1.3
		c0.1,0.4,0.4,0.6,0.7,0.6h1.4v-2V46v-0.1v-1.1h-5.8h-3.3V45.1z"/>
	<path class="st0" d="M826.2,59.9l-1.3-0.2l-2.7-3.9c-0.3-0.4-0.6-0.8-1-1c0.6-0.2,1.1-0.4,1.6-0.8c0.5-0.3,0.9-0.7,1.2-1.1
		c0.3-0.4,0.6-0.9,0.7-1.4c0.2-0.5,0.3-1.1,0.3-1.6c0-0.7-0.1-1.4-0.4-2c-0.2-0.6-0.7-1.1-1.2-1.6c-0.5-0.4-1.2-0.8-2-1
		s-1.8-0.4-3-0.4h-0.1H815h-0.1h-1.5h-1.8v1.4c0,0.4,0.3,0.7,0.6,0.7l1.2,0.2v12.3l-1.2,0.2c-0.4,0.1-0.6,0.4-0.6,0.7v1.4h1.8h1.5
		h0.1h1.5h1.8v-1.4c0-0.4-0.3-0.7-0.6-0.7l-1.2-0.2v-4.3h1.2c0.3,0,0.5,0,0.7,0.1s0.3,0.2,0.4,0.4l3.6,5.5c0.1,0.2,0.3,0.4,0.5,0.5
		s0.4,0.1,0.6,0.2l0,0h0.1h3.2v-1.4C826.9,60.3,826.6,60,826.2,59.9z M819.9,52.9c-0.4,0.1-1,0.2-1.6,0.2h-1.8v-5.7h1.9
		c1.2,0,2.1,0.2,2.6,0.7c0.6,0.5,0.8,1.1,0.8,2c0,0.4-0.1,0.8-0.2,1.2c-0.1,0.4-0.4,0.7-0.6,0.9C820.8,52.6,820.4,52.8,819.9,52.9z"
		/>
	<path class="st0" d="M843.1,45.1h-1.5h-0.1h-1.7h-1.6v1.4c0,0.4,0.3,0.7,0.6,0.7l1,0.1l-3,5.4l-3.1-5.4l1-0.1
		c0.4-0.1,0.6-0.4,0.6-0.7v-1.4h-1.6H832h-0.1h-1.5h-1.8v1.4c0,0.4,0.3,0.7,0.6,0.7l1.1,0.2l4.8,8.1v4.3L834,60
		c-0.4,0.1-0.6,0.4-0.6,0.7v1.4h1.8h1.5h0.1h1.5h1.8v-1.4c0-0.4-0.3-0.7-0.6-0.7l-1.1-0.2v-4.3l4.8-8.1l1.1-0.2
		c0.4-0.1,0.6-0.4,0.6-0.7v-1.4H843.1z"/>
	<path class="st0" d="M772.7,34.4L772.7,34.4l32-10.5c0.6-0.2,1-0.8,1-1.4v-7.2c0,0,0,0,0-0.1s0-0.1,0-0.2v-0.1c0-0.1,0-0.1-0.1-0.2
		v-0.1c0-0.1-0.1-0.1-0.1-0.2c0,0,0,0,0-0.1c-0.1-0.1-0.1-0.1-0.2-0.2l0,0c-0.1,0-0.1-0.1-0.2-0.1c0,0-0.1,0-0.1-0.1
		c0,0-0.1,0-0.1-0.1L777.3,0.2c-0.5-0.2-1-0.2-1.5,0.1c-0.4,0.3-0.7,0.8-0.7,1.3v12.1h-2.5L741-1.9c-0.5-0.2-1-0.2-1.5,0.1
		c-0.4,0.3-0.7,0.8-0.7,1.3v23c0,0.7,0.4,1.2,1,1.4l32,10.5l0,0c0.2,0,0.3,0.1,0.5,0.1C772.3,34.4,772.5,34.4,772.7,34.4z
		 M802.6,21.3l-28.9,9.5V16.7h2.8h26.1V21.3z M778,4l19.6,9.7H778V4z M741.7,1.9l28.9,14.3v14.7l-28.9-9.5V1.9z"/>
	<path class="st0" d="M738.7-15.7v0.1c0,0.1,0,0.1,0.1,0.2v0.1c0,0.1,0.1,0.1,0.1,0.2c0,0,0,0,0,0.1c0.1,0.1,0.1,0.1,0.2,0.2
		c0,0,0,0,0.1,0c0,0,0.1,0.1,0.2,0.1c0,0,0.1,0,0.1,0.1c0,0,0.1,0,0.1,0.1l27.6,13.6c0.2,0.1,0.4,0.2,0.7,0.2s0.6-0.1,0.8-0.2
		c0.4-0.3,0.7-0.8,0.7-1.3v-12.1h2.5l31.6,15.6c0.2,0.1,0.4,0.2,0.7,0.2c0.3,0,0.6-0.1,0.8-0.2c0.4-0.3,0.7-0.8,0.7-1.3v-23
		c0-0.7-0.4-1.2-1-1.4l-32-10.5h-0.1c-0.1,0-0.1,0-0.2,0s-0.1,0-0.2,0s-0.1,0-0.2,0s-0.1,0-0.2,0h-0.1l-32,10.5
		c-0.6,0.2-1,0.8-1,1.4L738.7-15.7C738.7-15.8,738.7-15.8,738.7-15.7C738.7-15.8,738.7-15.7,738.7-15.7z M766.3-4.7l-19.6-9.7h19.6
		V-4.7z M802.6-2.6l-28.9-14.3v-14.7l28.9,9.5V-2.6z M741.7-22l28.9-9.5v14.1h-2.8h-26.1V-22z"/>
</g>
</svg>
